<?xml version="1.0" encoding="UTF-8" standalone="no"?>
<svg
   xmlns:dc="http://purl.org/dc/elements/1.1/"
   xmlns:cc="http://creativecommons.org/ns#"
   xmlns:rdf="http://www.w3.org/1999/02/22-rdf-syntax-ns#"
   xmlns:svg="http://www.w3.org/2000/svg"
   xmlns="http://www.w3.org/2000/svg"
   xmlns:xlink="http://www.w3.org/1999/xlink"
   xmlns:sodipodi="http://sodipodi.sourceforge.net/DTD/sodipodi-0.dtd"
   xmlns:inkscape="http://www.inkscape.org/namespaces/inkscape"
   width="1288.5938"
   height="829.79187"
   viewBox="0 0 1288.5938 829.79187"
   id="svg2985"
   version="1.1"
   inkscape:version="0.48.4 r9939"
   sodipodi:docname="Birthday_Paradox.svg">
  <metadata
     id="metadata3287">
    <rdf:RDF>
      <cc:Work
         rdf:about="">
        <dc:format>image/svg+xml</dc:format>
        <dc:type
           rdf:resource="http://purl.org/dc/dcmitype/StillImage" />
      </cc:Work>
    </rdf:RDF>
  </metadata>
  <sodipodi:namedview
     pagecolor="#ffffff"
     bordercolor="#666666"
     borderopacity="1"
     objecttolerance="10"
     gridtolerance="10"
     guidetolerance="10"
     inkscape:pageopacity="0"
     inkscape:pageshadow="2"
     inkscape:window-width="1920"
     inkscape:window-height="1138"
     id="namedview3285"
     showgrid="false"
     fit-margin-top="15"
     fit-margin-right="10"
     fit-margin-left="15"
     fit-margin-bottom="10"
     inkscape:zoom="0.24"
     inkscape:cx="12.372224"
     inkscape:cy="449.07988"
     inkscape:window-x="1912"
     inkscape:window-y="-8"
     inkscape:window-maximized="1"
     inkscape:current-layer="svg2985" />
  <desc
     id="desc2987">Produced by GNUPLOT 4.2 patchlevel 6  </desc>
  <defs
     id="defs2989">
    <circle
       id="gpDot"
       r="0.5"
       cx="0"
       cy="0"
       sodipodi:cx="0"
       sodipodi:cy="0"
       sodipodi:rx="0.5"
       sodipodi:ry="0.5"
       style="stroke-width:0.5" />
    <path
       id="gpPt0"
       d="M -1,0 H 1 M 0,-1 v 2"
       inkscape:connector-curvature="0"
       style="stroke:currentColor;stroke-width:0.111" />
    <path
       id="gpPt1"
       d="M -1,-1 1,1 M 1,-1 -1,1"
       inkscape:connector-curvature="0"
       style="stroke:currentColor;stroke-width:0.111" />
    <path
       id="gpPt2"
       d="M -1,0 1,0 M 0,-1 0,1 m -1,-2 2,2 m -2,0 2,-2"
       inkscape:connector-curvature="0"
       style="stroke:currentColor;stroke-width:0.111" />
    <rect
       id="gpPt3"
       x="-1"
       y="-1"
       width="2"
       height="2"
       style="stroke:currentColor;stroke-width:0.111" />
    <rect
       id="gpPt4"
       x="-1"
       y="-1"
       width="2"
       height="2"
       style="fill:currentColor;stroke:currentColor;stroke-width:0.111" />
    <circle
       id="gpPt5"
       cx="0"
       cy="0"
       r="1"
       sodipodi:cx="0"
       sodipodi:cy="0"
       sodipodi:rx="1"
       sodipodi:ry="1"
       style="stroke:currentColor;stroke-width:0.111" />
    <use
       xlink:href="#gpPt5"
       id="gpPt6"
       style="fill:currentColor;stroke:none"
       x="0"
       y="0"
       width="1280"
       height="800" />
    <path
       id="gpPt7"
       d="m 0,-1.33 -1.33,2 2.66,0 z"
       inkscape:connector-curvature="0"
       style="stroke:currentColor;stroke-width:0.111" />
    <use
       xlink:href="#gpPt7"
       id="gpPt8"
       style="fill:currentColor;stroke:none"
       x="0"
       y="0"
       width="1280"
       height="800" />
    <use
       xlink:href="#gpPt7"
       id="gpPt9"
       transform="scale(-1,-1)"
       style="stroke:currentColor"
       x="0"
       y="0"
       width="1280"
       height="800" />
    <use
       xlink:href="#gpPt9"
       id="gpPt10"
       style="fill:currentColor;stroke:none"
       x="0"
       y="0"
       width="1280"
       height="800" />
    <use
       xlink:href="#gpPt3"
       id="gpPt11"
       transform="matrix(0.70710678,0.70710678,-0.70710678,0.70710678,0,0)"
       style="stroke:currentColor"
       x="0"
       y="0"
       width="1280"
       height="800" />
    <use
       xlink:href="#gpPt11"
       id="gpPt12"
       style="fill:currentColor;stroke:none"
       x="0"
       y="0"
       width="1280"
       height="800" />
  </defs>
  <g
     style="color:#ffffff;fill:none;stroke:currentColor;stroke-width:1;stroke-linecap:butt;stroke-linejoin:miter"
     id="g3005"
     transform="translate(5.3429693,7.0999845)" />
  <g
     style="color:#000000;fill:none;stroke:currentColor;stroke-width:1;stroke-linecap:butt;stroke-linejoin:miter"
     id="g3007"
     transform="translate(5.3429693,7.0999845)" />
  <g
     style="color:#808080;fill:none;stroke:currentColor;stroke-width:1;stroke-linecap:butt;stroke-linejoin:miter"
     id="g3009"
     transform="translate(5.3429693,7.0999845)">
    <path
       d="m 186.9,684.8 1042.3,0"
       id="path3011"
       inkscape:connector-curvature="0" />
  </g>
  <g
     style="color:#000000;fill:none;stroke:currentColor;stroke-width:1;stroke-linecap:butt;stroke-linejoin:miter"
     id="g3013"
     transform="translate(5.3429693,7.0999845)">
    <path
       d="m 186.9,684.8 18,0 m 1024.3,0 -18,0"
       id="path3015"
       inkscape:connector-curvature="0" />
    <g
       transform="translate(170.2,693.8)"
       style="font-size:30px;text-anchor:end;fill:#000000;stroke:none;font-family:Arial"
       id="g3017">
      <text
         id="text3019">
        <tspan
           id="tspan3021"
           style="font-size:56px">0</tspan>
      </text>
    </g>
  </g>
  <g
     style="color:#808080;fill:none;stroke:currentColor;stroke-width:1;stroke-linecap:butt;stroke-linejoin:miter"
     id="g3023"
     transform="translate(5.3429693,7.0999845)">
    <path
       d="m 186.9,619.7 1042.3,0"
       id="path3025"
       inkscape:connector-curvature="0" />
  </g>
  <g
     style="color:#000000;fill:none;stroke:currentColor;stroke-width:1;stroke-linecap:butt;stroke-linejoin:miter"
     id="g3027"
     transform="translate(5.3429693,7.0999845)">
    <path
       d="m 186.9,619.7 18,0 m 1024.3,0 -18,0"
       id="path3029"
       inkscape:connector-curvature="0" />
    <g
       transform="translate(170.2,628.7)"
       style="font-size:30px;text-anchor:end;fill:#000000;stroke:none;font-family:Arial"
       id="g3031">
      <text
         id="text3033">
        <tspan
           id="tspan3035"
           style="font-size:56px">0.1</tspan>
      </text>
    </g>
  </g>
  <g
     style="color:#808080;fill:none;stroke:currentColor;stroke-width:1;stroke-linecap:butt;stroke-linejoin:miter"
     id="g3037"
     transform="translate(5.3429693,7.0999845)">
    <path
       d="m 186.9,554.5 1042.3,0"
       id="path3039"
       inkscape:connector-curvature="0" />
  </g>
  <g
     style="color:#000000;fill:none;stroke:currentColor;stroke-width:1;stroke-linecap:butt;stroke-linejoin:miter"
     id="g3041"
     transform="translate(5.3429693,7.0999845)">
    <path
       d="m 186.9,554.5 18,0 m 1024.3,0 -18,0"
       id="path3043"
       inkscape:connector-curvature="0" />
    <g
       transform="translate(170.2,563.5)"
       style="font-size:30px;text-anchor:end;fill:#000000;stroke:none;font-family:Arial"
       id="g3045">
      <text
         id="text3047">
        <tspan
           id="tspan3049"
           style="font-size:56px">0.2</tspan>
      </text>
    </g>
  </g>
  <g
     style="color:#808080;fill:none;stroke:currentColor;stroke-width:1;stroke-linecap:butt;stroke-linejoin:miter"
     id="g3051"
     transform="translate(5.3429693,7.0999845)">
    <path
       d="m 186.9,489.4 1042.3,0"
       id="path3053"
       inkscape:connector-curvature="0" />
  </g>
  <g
     style="color:#000000;fill:none;stroke:currentColor;stroke-width:1;stroke-linecap:butt;stroke-linejoin:miter"
     id="g3055"
     transform="translate(5.3429693,7.0999845)">
    <path
       d="m 186.9,489.4 18,0 m 1024.3,0 -18,0"
       id="path3057"
       inkscape:connector-curvature="0" />
    <g
       transform="translate(170.2,498.4)"
       style="font-size:30px;text-anchor:end;fill:#000000;stroke:none;font-family:Arial"
       id="g3059">
      <text
         id="text3061">
        <tspan
           id="tspan3063"
           style="font-size:56px">0.3</tspan>
      </text>
    </g>
  </g>
  <g
     style="color:#808080;fill:none;stroke:currentColor;stroke-width:1;stroke-linecap:butt;stroke-linejoin:miter"
     id="g3065"
     transform="translate(5.3429693,7.0999845)">
    <path
       d="m 186.9,424.2 1042.3,0"
       id="path3067"
       inkscape:connector-curvature="0" />
  </g>
  <g
     style="color:#000000;fill:none;stroke:currentColor;stroke-width:1;stroke-linecap:butt;stroke-linejoin:miter"
     id="g3069"
     transform="translate(5.3429693,7.0999845)">
    <path
       d="m 186.9,424.2 18,0 m 1024.3,0 -18,0"
       id="path3071"
       inkscape:connector-curvature="0" />
    <g
       transform="translate(170.2,433.2)"
       style="font-size:30px;text-anchor:end;fill:#000000;stroke:none;font-family:Arial"
       id="g3073">
      <text
         id="text3075">
        <tspan
           id="tspan3077"
           style="font-size:56px">0.4</tspan>
      </text>
    </g>
  </g>
  <g
     style="color:#808080;fill:none;stroke:currentColor;stroke-width:1;stroke-linecap:butt;stroke-linejoin:miter"
     id="g3079"
     transform="translate(5.3429693,7.0999845)">
    <path
       d="m 186.9,359.1 1042.3,0"
       id="path3081"
       inkscape:connector-curvature="0" />
  </g>
  <g
     style="color:#000000;fill:none;stroke:currentColor;stroke-width:1;stroke-linecap:butt;stroke-linejoin:miter"
     id="g3083"
     transform="translate(5.3429693,7.0999845)">
    <path
       d="m 186.9,359.1 18,0 m 1024.3,0 -18,0"
       id="path3085"
       inkscape:connector-curvature="0" />
    <g
       transform="translate(170.2,368.1)"
       style="font-size:30px;text-anchor:end;fill:#000000;stroke:none;font-family:Arial"
       id="g3087">
      <text
         id="text3089">
        <tspan
           id="tspan3091"
           style="font-size:56px">0.5</tspan>
      </text>
    </g>
  </g>
  <g
     style="color:#808080;fill:none;stroke:currentColor;stroke-width:1;stroke-linecap:butt;stroke-linejoin:miter"
     id="g3093"
     transform="translate(5.3429693,7.0999845)">
    <path
       d="m 186.9,294 1042.3,0"
       id="path3095"
       inkscape:connector-curvature="0" />
  </g>
  <g
     style="color:#000000;fill:none;stroke:currentColor;stroke-width:1;stroke-linecap:butt;stroke-linejoin:miter"
     id="g3097"
     transform="translate(5.3429693,7.0999845)">
    <path
       d="m 186.9,294 18,0 m 1024.3,0 -18,0"
       id="path3099"
       inkscape:connector-curvature="0" />
    <g
       transform="translate(170.2,303)"
       style="font-size:30px;text-anchor:end;fill:#000000;stroke:none;font-family:Arial"
       id="g3101">
      <text
         id="text3103">
        <tspan
           id="tspan3105"
           style="font-size:56px">0.6</tspan>
      </text>
    </g>
  </g>
  <g
     style="color:#808080;fill:none;stroke:currentColor;stroke-width:1;stroke-linecap:butt;stroke-linejoin:miter"
     id="g3107"
     transform="translate(5.3429693,7.0999845)">
    <path
       d="m 186.9,228.8 1042.3,0"
       id="path3109"
       inkscape:connector-curvature="0" />
  </g>
  <g
     style="color:#000000;fill:none;stroke:currentColor;stroke-width:1;stroke-linecap:butt;stroke-linejoin:miter"
     id="g3111"
     transform="translate(5.3429693,7.0999845)">
    <path
       d="m 186.9,228.8 18,0 m 1024.3,0 -18,0"
       id="path3113"
       inkscape:connector-curvature="0" />
    <g
       transform="translate(170.2,237.8)"
       style="font-size:30px;text-anchor:end;fill:#000000;stroke:none;font-family:Arial"
       id="g3115">
      <text
         id="text3117">
        <tspan
           id="tspan3119"
           style="font-size:56px">0.7</tspan>
      </text>
    </g>
  </g>
  <g
     style="color:#808080;fill:none;stroke:currentColor;stroke-width:1;stroke-linecap:butt;stroke-linejoin:miter"
     id="g3121"
     transform="translate(5.3429693,7.0999845)">
    <path
       d="m 186.9,163.7 1042.3,0"
       id="path3123"
       inkscape:connector-curvature="0" />
  </g>
  <g
     style="color:#000000;fill:none;stroke:currentColor;stroke-width:1;stroke-linecap:butt;stroke-linejoin:miter"
     id="g3125"
     transform="translate(5.3429693,7.0999845)">
    <path
       d="m 186.9,163.7 18,0 m 1024.3,0 -18,0"
       id="path3127"
       inkscape:connector-curvature="0" />
    <g
       transform="translate(170.2,172.7)"
       style="font-size:30px;text-anchor:end;fill:#000000;stroke:none;font-family:Arial"
       id="g3129">
      <text
         id="text3131">
        <tspan
           id="tspan3133"
           style="font-size:56px">0.8</tspan>
      </text>
    </g>
  </g>
  <g
     style="color:#808080;fill:none;stroke:currentColor;stroke-width:1;stroke-linecap:butt;stroke-linejoin:miter"
     id="g3135"
     transform="translate(5.3429693,7.0999845)">
    <path
       d="m 186.9,98.5 1042.3,0"
       id="path3137"
       inkscape:connector-curvature="0" />
  </g>
  <g
     style="color:#000000;fill:none;stroke:currentColor;stroke-width:1;stroke-linecap:butt;stroke-linejoin:miter"
     id="g3139"
     transform="translate(5.3429693,7.0999845)">
    <path
       d="m 186.9,98.5 18,0 m 1024.3,0 -18,0"
       id="path3141"
       inkscape:connector-curvature="0" />
    <g
       transform="translate(170.2,107.5)"
       style="font-size:30px;text-anchor:end;fill:#000000;stroke:none;font-family:Arial"
       id="g3143">
      <text
         id="text3145">
        <tspan
           id="tspan3147"
           style="font-size:56px">0.9</tspan>
      </text>
    </g>
  </g>
  <g
     style="color:#808080;fill:none;stroke:currentColor;stroke-width:1;stroke-linecap:butt;stroke-linejoin:miter"
     id="g3149"
     transform="translate(5.3429693,7.0999845)">
    <path
       d="m 186.9,33.4 1042.3,0"
       id="path3151"
       inkscape:connector-curvature="0" />
  </g>
  <path
     style="color:#000000;fill:none;stroke:currentColor;stroke-width:1;stroke-linecap:butt;stroke-linejoin:miter"
     inkscape:connector-curvature="0"
     id="path3155"
     d="m 192.24297,40.499984 18,0 m 1024.30003,0 -18,0" />
  <g
     id="g3157"
     style="font-size:30px;text-anchor:end;color:#000000;fill:#000000;stroke:none;font-family:Arial"
     transform="translate(175.54297,49.499984)">
    <text
       id="text3159">
      <tspan
         style="font-size:48px"
         id="tspan3161">1</tspan>
    </text>
  </g>
  <path
     style="color:#000000;fill:none;stroke:currentColor;stroke-width:1;stroke-linecap:butt;stroke-linejoin:miter"
     inkscape:connector-curvature="0"
     id="path3163"
     d="m 192.24297,691.89998 0,-18 m 0,-633.399996 0,18" />
  <g
     id="g3165"
     style="font-size:30px;text-anchor:middle;color:#000000;fill:#000000;stroke:none;font-family:Arial"
     transform="translate(192.24297,736.89998)">
    <text
       id="text3167">
      <tspan
         style="font-size:56px"
         id="tspan3169">0</tspan>
    </text>
  </g>
  <path
     style="color:#000000;fill:none;stroke:currentColor;stroke-width:1;stroke-linecap:butt;stroke-linejoin:miter"
     inkscape:connector-curvature="0"
     id="path3171"
     d="m 296.44297,691.89998 0,-18 m 0,-633.399996 0,18" />
  <g
     id="g3173"
     style="font-size:30px;text-anchor:middle;color:#000000;fill:#000000;stroke:none;font-family:Arial"
     transform="translate(296.44297,736.89998)">
    <text
       id="text3175">
      <tspan
         style="font-size:56px"
         id="tspan3177">10</tspan>
    </text>
  </g>
  <path
     style="color:#000000;fill:none;stroke:currentColor;stroke-width:1;stroke-linecap:butt;stroke-linejoin:miter"
     inkscape:connector-curvature="0"
     id="path3179"
     d="m 400.74297,691.89998 0,-18 m 0,-633.399996 0,18" />
  <g
     id="g3181"
     style="font-size:30px;text-anchor:middle;color:#000000;fill:#000000;stroke:none;font-family:Arial"
     transform="translate(400.74297,736.89998)">
    <text
       id="text3183">
      <tspan
         style="font-size:56px"
         id="tspan3185">20</tspan>
    </text>
  </g>
  <path
     style="color:#000000;fill:none;stroke:currentColor;stroke-width:1;stroke-linecap:butt;stroke-linejoin:miter"
     inkscape:connector-curvature="0"
     id="path3187"
     d="m 504.94297,691.89998 0,-18 m 0,-633.399996 0,18" />
  <g
     id="g3189"
     style="font-size:30px;text-anchor:middle;color:#000000;fill:#000000;stroke:none;font-family:Arial"
     transform="translate(504.94297,736.89998)">
    <text
       id="text3191">
      <tspan
         id="tspan3193"
         style="font-size:56px">30</tspan>
    </text>
  </g>
  <path
     style="color:#000000;fill:none;stroke:currentColor;stroke-width:1;stroke-linecap:butt;stroke-linejoin:miter"
     inkscape:connector-curvature="0"
     id="path3195"
     d="m 609.14297,691.89998 0,-18 m 0,-633.399996 0,18" />
  <g
     id="g3197"
     style="font-size:30px;text-anchor:middle;color:#000000;fill:#000000;stroke:none;font-family:Arial"
     transform="translate(609.14297,736.89998)">
    <text
       id="text3199">
      <tspan
         id="tspan3201"
         style="font-size:56px">40</tspan>
    </text>
  </g>
  <path
     style="color:#000000;fill:none;stroke:currentColor;stroke-width:1;stroke-linecap:butt;stroke-linejoin:miter"
     inkscape:connector-curvature="0"
     id="path3203"
     d="m 713.44297,691.89998 0,-18 m 0,-633.399996 0,18" />
  <g
     id="g3205"
     style="font-size:30px;text-anchor:middle;color:#000000;fill:#000000;stroke:none;font-family:Arial"
     transform="translate(713.44297,736.89998)">
    <text
       id="text3207">
      <tspan
         id="tspan3209"
         style="font-size:56px">50</tspan>
    </text>
  </g>
  <path
     style="color:#000000;fill:none;stroke:currentColor;stroke-width:1;stroke-linecap:butt;stroke-linejoin:miter"
     inkscape:connector-curvature="0"
     id="path3211"
     d="m 817.64297,691.89998 0,-18 m 0,-633.399996 0,18" />
  <g
     id="g3213"
     style="font-size:30px;text-anchor:middle;color:#000000;fill:#000000;stroke:none;font-family:Arial"
     transform="translate(817.64297,736.89998)">
    <text
       id="text3215">
      <tspan
         id="tspan3217"
         style="font-size:56px">60</tspan>
    </text>
  </g>
  <path
     style="color:#000000;fill:none;stroke:currentColor;stroke-width:1;stroke-linecap:butt;stroke-linejoin:miter"
     inkscape:connector-curvature="0"
     id="path3219"
     d="m 921.84297,691.89998 0,-18 m 0,-633.399996 0,18" />
  <g
     id="g3221"
     style="font-size:30px;text-anchor:middle;color:#000000;fill:#000000;stroke:none;font-family:Arial"
     transform="translate(921.84297,736.89998)">
    <text
       id="text3223">
      <tspan
         id="tspan3225"
         style="font-size:56px">70</tspan>
    </text>
  </g>
  <path
     style="color:#000000;fill:none;stroke:currentColor;stroke-width:1;stroke-linecap:butt;stroke-linejoin:miter"
     inkscape:connector-curvature="0"
     id="path3227"
     d="m 1026.043,691.89998 0,-18 m 0,-633.399996 0,18" />
  <g
     id="g3229"
     style="font-size:30px;text-anchor:middle;color:#000000;fill:#000000;stroke:none;font-family:Arial"
     transform="translate(1026.043,736.89998)">
    <text
       id="text3231">
      <tspan
         id="tspan3233"
         style="font-size:56px">80</tspan>
    </text>
  </g>
  <path
     style="color:#000000;fill:none;stroke:currentColor;stroke-width:1;stroke-linecap:butt;stroke-linejoin:miter"
     inkscape:connector-curvature="0"
     id="path3235"
     d="m 1130.343,691.89998 0,-18 m 0,-633.399996 0,18" />
  <g
     id="g3237"
     style="font-size:30px;text-anchor:middle;color:#000000;fill:#000000;stroke:none;font-family:Arial"
     transform="translate(1130.343,736.89998)">
    <text
       id="text3239">
      <tspan
         id="tspan3241"
         style="font-size:56px">90</tspan>
    </text>
  </g>
  <path
     style="color:#000000;fill:none;stroke:currentColor;stroke-width:1;stroke-linecap:butt;stroke-linejoin:miter"
     inkscape:connector-curvature="0"
     id="path3243"
     d="m 1234.543,691.89998 0,-18 m 0,-633.399996 0,18" />
  <g
     id="g3245"
     style="font-size:30px;text-anchor:middle;color:#000000;fill:#000000;stroke:none;font-family:Arial"
     transform="translate(1234.543,736.89998)">
    <text
       id="text3247">
      <tspan
         id="tspan3249"
         style="font-size:56px">100</tspan>
    </text>
  </g>
  <path
     style="color:#000000;fill:none;stroke:currentColor;stroke-width:1;stroke-linecap:butt;stroke-linejoin:miter"
     inkscape:connector-curvature="0"
     id="path3251"
     d="m 192.24297,40.499984 0,651.399996 1042.30003,0 0,-651.399996 -1042.30003,0 z" />
  <g
     id="g3253"
     style="font-size:30px;text-anchor:middle;color:#000000;fill:#000000;stroke:none;font-family:Arial"
     transform="matrix(0,-1,1,0,67.417969,366.19998)">
    <text
       id="text3255">
      <tspan
         style="font-size:72px"
         id="tspan3257">Probability of a pair</tspan>
    </text>
  </g>
  <g
     id="g3259"
     style="font-size:30px;text-anchor:middle;color:#000000;fill:#000000;stroke:none;font-family:Arial"
     transform="translate(713.34297,805.48331)">
    <text
       id="text3261">
      <tspan
         style="font-size:72px"
         id="tspan3263">Number of people</tspan>
    </text>
  </g>
  <path
     style="color:#000000;fill:none;stroke:currentColor;stroke-width:3;stroke-linecap:butt;stroke-linejoin:miter;stroke-miterlimit:4;stroke-dasharray:none"
     inkscape:connector-curvature="0"
     id="path3271"
     d="m 431.94297,691.89998 0,-330.4 m -239.7,0 239.7,0" />
  <g
     style="color:#000000;fill:none;stroke:currentColor;stroke-width:2;stroke-linecap:butt;stroke-linejoin:miter"
     id="g3273"
     transform="translate(5.3429693,7.0999845)" />
  <path
     style="color:#ff0000;fill:none;stroke:currentColor;stroke-width:5;stroke-linecap:butt;stroke-linejoin:miter;stroke-miterlimit:4;stroke-dasharray:none"
     inkscape:connector-curvature="0"
     id="path3277"
     d="m 202.64297,691.89998 10.4,0 0,-1.8 10.5,0 0,-3.5 10.4,0 0,-5.4 10.4,0 0,-7 10.4,0 0,-8.7 10.5,0 0,-10.2 10.4,0 0,-11.8 10.4,0 0,-13.2 10.4,0 0,-14.6 10.5,0 0,-15.7 10.4,0 0,-16.9 10.4,0 0,-17.8 10.4,0 0,-18.7 10.4,0 0,-19.4 10.5,0 0,-20 10.4,0 0,-20.5 10.4,0 0,-20.8 10.4,0 0,-21 10.5,0 0,-21 10.4,0 0,-21 10.4,0 0,-20.9 10.4,0 0,-20.6 10.5,0 0,-20.2 10.4,0 0,-19.8 10.4,0 0,-19.2 10.4,0 0,-18.6 10.4,0 0,-18 10.5,0 0,-17.3 10.4,0 0,-16.5 10.4,0 0,-15.7 10.4,0 0,-14.9 10.5,0 0,-14.1 10.4,0 0,-13.3 10.4,0 0,-12.4 10.4,0 0,-11.6 10.5,0 0,-10.8 10.4,0 0,-10 10.4,0 0,-9.2 10.4,0 0,-8.4 10.4,0 0,-7.8 10.5,0 0,-7.099996 10.4,0 0,-6.4 10.4,0 0,-5.9 10.4,0 0,-5.3 10.5,0 0,-4.7 10.4,0 0,-4.2 10.4,0 0,-3.8 10.4,0 0,-3.4 10.5,0 0,-3 10.4,0 0,-2.6 10.4,0 0,-2.4 10.4,0 0,-2 10.4,0 0,-1.8 10.5,0 0,-1.6 10.4,0 0,-1.3 10.4,0 0,-1.2 10.4,0 0,-1 10.5,0 0,-0.8 10.4,0 0,-0.8 10.4,0 0,-0.6 10.4,0 0,-0.5 10.4,0 0,-0.5 10.5,0 0,-0.4 10.4,0 0,-0.3 10.4,0 0,-0.3 10.4,0 0,-0.2 10.5,0 0,-0.2 10.4,0 0,-0.1 10.4,0 0,-0.2 10.4,0 0,-0.1 10.5,0 10.4,0 0,-0.1 10.4,0 0,-0.1 10.4,0 10.4,0 0,-0.1 10.5,0 10.40003,0 10.4,0 10.4,0 10.5,0 0,-0.1 10.4,0 10.4,0 10.4,0 10.5,0 10.4,0 10.4,0 10.4,0 10.4,0 10.5,0 10.4,0 10.4,0 10.4,0 10.5,0 10.4,0 10.4,0 10.4,0 10.5,0 10.4,0 10.4,0" />
  <g
     style="color:#ff0000;fill:none;stroke:currentColor;stroke-width:1;stroke-linecap:butt;stroke-linejoin:miter"
     id="g3279"
     transform="translate(5.3429693,7.0999845)" />
  <g
     style="color:#000000;fill:none;stroke:currentColor;stroke-width:1;stroke-linecap:butt;stroke-linejoin:miter"
     id="g3281"
     transform="translate(5.3429693,7.0999845)">
    <path
       d="m 186.9,33.4 0,651.4 1042.3,0 0,-651.4 -1042.3,0 z"
       id="path3283"
       inkscape:connector-curvature="0" />
  </g>
  <rect
     style="fill:#ffffff;fill-opacity:1;stroke:none"
     id="rect4117"
     width="43.75"
     height="31.770834"
     x="410.03046"
     y="652.41248" />
  <g
     id="g3265"
     style="font-size:20px;text-anchor:middle;color:#000000;fill:#000000;stroke:none;font-family:Arial"
     transform="translate(431.83326,681.08749)">
    <text
       id="text3267">
      <tspan
         style="font-size:40px"
         id="tspan3269">23</tspan>
    </text>
  </g>
</svg>
